{
    "asset" : {
        "generator" : "Khronos glTF Blender I/O v1.8.19",
        "version" : "2.0"
    },
    "scene" : 0,
    "scenes" : [
        {
            "name" : "Scene",
            "nodes" : [
                0,
                1,
                2,
                3,
                4
            ]
        }
    ],
    "nodes" : [
        {
            "name" : "\u7a7a\u7269\u4f53",
            "scale" : [
                3.417891025543213,
                3.417891025543213,
                3.417891025543213
            ],
            "translation" : [
                0.5354018211364746,
                0,
                -1.72231924533844
            ]
        },
        {
            "mesh" : 0,
            "name" : "\u73af\u4f53.002"
        },
        {
            "mesh" : 1,
            "name" : "\u7403\u4f53",
            "rotation" : [
                -0.7071068286895752,
                0,
                0,
                0.7071068286895752
            ],
            "translation" : [
                -0.015095116570591927,
                0,
                -0.8302314281463623
            ]
        },
        {
            "mesh" : 2,
            "name" : "\u73af\u4f53.003",
            "rotation" : [
                0.7071068286895752,
                0,
                0,
                0.7071068286895752
            ],
            "scale" : [
                0.13827383518218994,
                0.13827383518218994,
                0.13827383518218994
            ],
            "translation" : [
                0,
                0,
                0.9509650468826294
            ]
        },
        {
            "mesh" : 3,
            "name" : "\u7403\u4f53.001",
            "rotation" : [
                0.7071068286895752,
                0,
                0,
                0.7071068286895752
            ],
            "scale" : [
                0.6397475004196167,
                0.6397475004196167,
                0.6397475004196167
            ],
            "translation" : [
                0,
                0,
                1.0807793140411377
            ]
        }
    ],
    "materials" : [
        {
            "doubleSided" : true,
            "name" : "Material",
            "pbrMetallicRoughness" : {
                "baseColorFactor" : [
                    0.2638170123100281,
                    0.6468479633331299,
                    0.8000000715255737,
                    1
                ],
                "metallicFactor" : 0,
                "roughnessFactor" : 0.4000000059604645
            }
        }
    ],
    "meshes" : [
        {
            "name" : "\u73af\u4f53.002",
            "primitives" : [
                {
                    "attributes" : {
                        "POSITION" : 0,
                        "NORMAL" : 1,
                        "TEXCOORD_0" : 2
                    },
                    "indices" : 3,
                    "material" : 0
                }
            ]
        },
        {
            "name" : "\u7403\u4f53.001",
            "primitives" : [
                {
                    "attributes" : {
                        "POSITION" : 4,
                        "NORMAL" : 5,
                        "TEXCOORD_0" : 6
                    },
                    "indices" : 7,
                    "material" : 0
                }
            ]
        },
        {
            "name" : "\u73af\u4f53.003",
            "primitives" : [
                {
                    "attributes" : {
                        "POSITION" : 8,
                        "NORMAL" : 9,
                        "TEXCOORD_0" : 10
                    },
                    "indices" : 11,
                    "material" : 0
                }
            ]
        },
        {
            "name" : "\u7403\u4f53.002",
            "primitives" : [
                {
                    "attributes" : {
                        "POSITION" : 12,
                        "NORMAL" : 13,
                        "TEXCOORD_0" : 14
                    },
                    "indices" : 15,
                    "material" : 0
                }
            ]
        }
    ],
    "accessors" : [
        {
            "bufferView" : 0,
            "componentType" : 5126,
            "count" : 1365,
            "max" : [
                4.740000247955322,
                0.2900000214576721,
                4.740000247955322
            ],
            "min" : [
                -4.740000247955322,
                -0.2900000214576721,
                -4.740000247955322
            ],
            "type" : "VEC3"
        },
        {
            "bufferView" : 1,
            "componentType" : 5126,
            "count" : 1365,
            "type" : "VEC3"
        },
        {
            "bufferView" : 2,
            "componentType" : 5126,
            "count" : 1365,
            "type" : "VEC2"
        },
        {
            "bufferView" : 3,
            "componentType" : 5123,
            "count" : 7488,
            "type" : "SCALAR"
        },
        {
            "bufferView" : 4,
            "componentType" : 5126,
            "count" : 2434,
            "max" : [
                1.2552539110183716,
                1,
                1.2552536725997925
            ],
            "min" : [
                -1.2552533149719238,
                -1.5963594913482666,
                -1.255252718925476
            ],
            "type" : "VEC3"
        },
        {
            "bufferView" : 5,
            "componentType" : 5126,
            "count" : 2434,
            "type" : "VEC3"
        },
        {
            "bufferView" : 6,
            "componentType" : 5126,
            "count" : 2434,
            "type" : "VEC2"
        },
        {
            "bufferView" : 7,
            "componentType" : 5123,
            "count" : 3648,
            "type" : "SCALAR"
        },
        {
            "bufferView" : 8,
            "componentType" : 5126,
            "count" : 4992,
            "max" : [
                4.740000247955322,
                0.2900000214576721,
                4.740000247955322
            ],
            "min" : [
                -4.740000247955322,
                -0.2900000214576721,
                -4.740000247955322
            ],
            "type" : "VEC3"
        },
        {
            "bufferView" : 9,
            "componentType" : 5126,
            "count" : 4992,
            "type" : "VEC3"
        },
        {
            "bufferView" : 10,
            "componentType" : 5126,
            "count" : 4992,
            "type" : "VEC2"
        },
        {
            "bufferView" : 11,
            "componentType" : 5123,
            "count" : 7488,
            "type" : "SCALAR"
        },
        {
            "bufferView" : 12,
            "componentType" : 5126,
            "count" : 328,
            "max" : [
                0.9999997019767761,
                1,
                0.9999994039535522
            ],
            "min" : [
                -0.9999990463256836,
                -4.371138828673793e-08,
                -0.9999987483024597
            ],
            "type" : "VEC3"
        },
        {
            "bufferView" : 13,
            "componentType" : 5126,
            "count" : 328,
            "type" : "VEC3"
        },
        {
            "bufferView" : 14,
            "componentType" : 5126,
            "count" : 328,
            "type" : "VEC2"
        },
        {
            "bufferView" : 15,
            "componentType" : 5123,
            "count" : 1530,
            "type" : "SCALAR"
        }
    ],
    "bufferViews" : [
        {
            "buffer" : 0,
            "byteLength" : 16380,
            "byteOffset" : 0
        },
        {
            "buffer" : 0,
            "byteLength" : 16380,
            "byteOffset" : 16380
        },
        {
            "buffer" : 0,
            "byteLength" : 10920,
            "byteOffset" : 32760
        },
        {
            "buffer" : 0,
            "byteLength" : 14976,
            "byteOffset" : 43680
        },
        {
            "buffer" : 0,
            "byteLength" : 29208,
            "byteOffset" : 58656
        },
        {
            "buffer" : 0,
            "byteLength" : 29208,
            "byteOffset" : 87864
        },
        {
            "buffer" : 0,
            "byteLength" : 19472,
            "byteOffset" : 117072
        },
        {
            "buffer" : 0,
            "byteLength" : 7296,
            "byteOffset" : 136544
        },
        {
            "buffer" : 0,
            "byteLength" : 59904,
            "byteOffset" : 143840
        },
        {
            "buffer" : 0,
            "byteLength" : 59904,
            "byteOffset" : 203744
        },
        {
            "buffer" : 0,
            "byteLength" : 39936,
            "byteOffset" : 263648
        },
        {
            "buffer" : 0,
            "byteLength" : 14976,
            "byteOffset" : 303584
        },
        {
            "buffer" : 0,
            "byteLength" : 3936,
            "byteOffset" : 318560
        },
        {
            "buffer" : 0,
            "byteLength" : 3936,
            "byteOffset" : 322496
        },
        {
            "buffer" : 0,
            "byteLength" : 2624,
            "byteOffset" : 326432
        },
        {
            "buffer" : 0,
            "byteLength" : 3060,
            "byteOffset" : 329056
        }
    ],
    "buffers" : [
        {
            "byteLength" : 332116,
            "uri" : "data:application/octet-stream;base64,"
        }
    ]
}
