{"asset":{"version":"2.0","generator":"babylon.js glTF exporter for 3ds max 2015 v1.4.2"},"scene":0,"scenes":[{"nodes":[0,1,2,3,4],"extensions":{}}],"nodes":[{"mesh":0,"translation":[-0.15193975,0.0,0.848397],"rotation":[0.0,0.0,0.0,1.0],"scale":[1.0,1.0,1.0],"name":"Box001"},{"mesh":1,"translation":[-3.671797E-08,0.7954605,0.810932338],"rotation":[0.49999997,-0.50000006,0.5000001,0.49999997],"scale":[1.0,1.0,1.0],"name":"Box002"},{"mesh":2,"translation":[0.380523682,0.2774615,-0.7449686],"rotation":[0.49999997,-0.50000006,0.5000001,0.49999997],"scale":[1.0,1.0,1.0],"name":"Text001"},{"mesh":3,"translation":[0.390550882,0.244590208,2.27013683],"rotation":[0.49999997,-0.50000006,0.5000001,0.49999997],"scale":[1.0,1.0,1.0],"name":"Text002"},{"translation":[0.0,0.0,0.0],"rotation":[0.0,0.0,0.0,1.0],"scale":[1.0,1.0,1.0],"name":"Default light"}],"meshes":[{"primitives":[{"attributes":{"POSITION":1,"NORMAL":2,"TEXCOORD_0":3},"indices":0}],"name":"Box001"},{"primitives":[{"attributes":{"POSITION":5,"NORMAL":6,"TEXCOORD_0":7},"indices":4}],"name":"Box002"},{"primitives":[{"attributes":{"POSITION":9,"NORMAL":10},"indices":8}],"name":"Text001"},{"primitives":[{"attributes":{"POSITION":12,"NORMAL":13},"indices":11}],"name":"Text002"}],"accessors":[{"bufferView":0,"componentType":5123,"count":36,"type":"SCALAR","name":"accessorIndices"},{"bufferView":1,"componentType":5126,"count":36,"max":[0.0598744452,1.07691991,1.84021163],"min":[-0.0598744452,0.0,-1.84021163],"type":"VEC3","name":"accessorPositions"},{"bufferView":1,"byteOffset":432,"componentType":5126,"count":36,"type":"VEC3","name":"accessorNormals"},{"bufferView":2,"componentType":5126,"count":36,"type":"VEC2","name":"accessorUVs"},{"bufferView":0,"byteOffset":72,"componentType":5123,"count":36,"type":"SCALAR","name":"accessorIndices"},{"bufferView":1,"byteOffset":864,"componentType":5126,"count":36,"max":[1.52309012,0.264885247,0.0242273],"min":[-1.52309,-3.465175E-14,-0.0242273],"type":"VEC3","name":"accessorPositions"},{"bufferView":1,"byteOffset":1296,"componentType":5126,"count":36,"type":"VEC3","name":"accessorNormals"},{"bufferView":2,"byteOffset":288,"componentType":5126,"count":36,"type":"VEC2","name":"accessorUVs"},{"bufferView":0,"byteOffset":144,"componentType":5123,"count":216,"type":"SCALAR","name":"accessorIndices"},{"bufferView":1,"byteOffset":1728,"componentType":5126,"count":216,"max":[0.050583832,0.635,-0.0114529347],"min":[-0.050583832,0.0,-0.339770526],"type":"VEC3","name":"accessorPositions"},{"bufferView":1,"byteOffset":4320,"componentType":5126,"count":216,"type":"VEC3","name":"accessorNormals"},{"bufferView":0,"byteOffset":576,"componentType":5123,"count":3912,"type":"SCALAR","name":"accessorIndices"},{"bufferView":1,"byteOffset":6912,"componentType":5126,"count":3912,"max":[0.331482679,0.635,-0.0054343096],"min":[-0.332612455,-4.84466547E-08,-0.341679364],"type":"VEC3","name":"accessorPositions"},{"bufferView":1,"byteOffset":53856,"componentType":5126,"count":3912,"type":"VEC3","name":"accessorNormals"}],"bufferViews":[{"buffer":0,"byteLength":8400,"name":"bufferViewScalar"},{"buffer":0,"byteOffset":8400,"byteLength":100800,"byteStride":12,"name":"bufferViewFloatVec3"},{"buffer":0,"byteOffset":109200,"byteLength":576,"byteStride":8,"name":"bufferViewFloatVec2"}],"buffers":[{"uri":"底盘.bin","byteLength":109776}]}