{"asset":{"version":"2.0","generator":"babylon.js glTF exporter for 3ds max 2015 v1.4.2"},"scene":0,"scenes":[{"nodes":[0,1],"extensions":{}}],"nodes":[{"mesh":0,"translation":[-0.302884221,0.3213831,-0.3421187],"rotation":[0.0,0.0,0.0,1.0],"scale":[0.20051977,0.229205951,0.4144752],"name":"Cone001"},{"translation":[0.0,0.0,0.0],"rotation":[0.0,0.0,0.0,1.0],"scale":[1.0,1.0,1.0],"name":"Default light"}],"meshes":[{"primitives":[{"attributes":{"POSITION":1,"NORMAL":2,"TEXCOORD_0":3},"indices":0}],"name":"Cone001"}],"accessors":[{"bufferView":0,"componentType":5123,"count":864,"type":"SCALAR","name":"accessorIndices"},{"bufferView":1,"componentType":5126,"count":864,"max":[0.217547372,1.40748346,0.217547372],"min":[-0.217547283,0.0,-0.217547372],"type":"VEC3","name":"accessorPositions"},{"bufferView":1,"byteOffset":10368,"componentType":5126,"count":864,"type":"VEC3","name":"accessorNormals"},{"bufferView":2,"componentType":5126,"count":864,"type":"VEC2","name":"accessorUVs"}],"bufferViews":[{"buffer":0,"byteLength":1728,"name":"bufferViewScalar"},{"buffer":0,"byteOffset":1728,"byteLength":20736,"byteStride":12,"name":"bufferViewFloatVec3"},{"buffer":0,"byteOffset":22464,"byteLength":6912,"byteStride":8,"name":"bufferViewFloatVec2"}],"buffers":[{"uri":"三角.bin","byteLength":29376}]}