{"asset":{"version":"2.0","generator":"babylon.js glTF exporter for 3ds max 2015 v1.4.2"},"scene":0,"scenes":[{"nodes":[0,1,2],"extensions":{}}],"nodes":[{"mesh":0,"translation":[-2.73280865E-08,0.493323952,0.6251938],"rotation":[0.49999997,-0.50000006,0.5000001,0.49999997],"scale":[1.0,1.0,1.0],"name":"Cylinder001"},{"mesh":1,"translation":[-2.73280865E-08,0.4868633,0.6251938],"rotation":[0.49999997,-0.50000006,0.5000001,0.49999997],"scale":[1.0,1.0,1.0],"name":"Cylinder002"},{"translation":[0.0,0.0,0.0],"rotation":[0.0,0.0,0.0,1.0],"scale":[1.0,1.0,1.0],"name":"Default light"}],"meshes":[{"primitives":[{"attributes":{"POSITION":1,"NORMAL":2,"TEXCOORD_0":3},"indices":0}],"name":"Cylinder001"},{"primitives":[{"attributes":{"POSITION":5,"NORMAL":6,"TEXCOORD_0":7},"indices":4}],"name":"Cylinder002"}],"accessors":[{"bufferView":0,"componentType":5123,"count":648,"type":"SCALAR","name":"accessorIndices"},{"bufferView":1,"componentType":5126,"count":648,"max":[0.203406811,0.100139543,0.200316653],"min":[-0.20340687,-1.15505826E-14,-0.200316653],"type":"VEC3","name":"accessorPositions"},{"bufferView":1,"byteOffset":7776,"componentType":5126,"count":648,"type":"VEC3","name":"accessorNormals"},{"bufferView":2,"componentType":5126,"count":648,"type":"VEC2","name":"accessorUVs"},{"bufferView":0,"byteOffset":1296,"componentType":5123,"count":648,"type":"SCALAR","name":"accessorIndices"},{"bufferView":1,"byteOffset":15552,"componentType":5126,"count":648,"max":[0.3278564,0.06783647,0.3228755],"min":[-0.327856332,0.0,-0.32287544],"type":"VEC3","name":"accessorPositions"},{"bufferView":1,"byteOffset":23328,"componentType":5126,"count":648,"type":"VEC3","name":"accessorNormals"},{"bufferView":2,"byteOffset":5184,"componentType":5126,"count":648,"type":"VEC2","name":"accessorUVs"}],"bufferViews":[{"buffer":0,"byteLength":2592,"name":"bufferViewScalar"},{"buffer":0,"byteOffset":2592,"byteLength":31104,"byteStride":12,"name":"bufferViewFloatVec3"},{"buffer":0,"byteOffset":33696,"byteLength":10368,"byteStride":8,"name":"bufferViewFloatVec2"}],"buffers":[{"uri":"按钮.bin","byteLength":44064}]}